<svg width="24" height="24" xmlns="http://www.w3.org/2000/svg" focusable="false" class="goxjub">

 <g>
  <title>Layer 1</title>
  <path id="svg_1" d="m12,15c1.66,0 3,-1.31 3,-2.97l0,-7.02c0,-1.66 -1.34,-3.01 -3,-3.01s-3,1.34 -3,3.01l0,7.02c0,1.66 1.34,2.97 3,2.97z" fill="#4285f4"/>
  <path id="svg_2" d="m11,18.08l2,0l0,3.92l-2,0l0,-3.92z" fill="#34a853"/>
  <path id="svg_3" d="m7.05,16.87c-1.27,-1.33 -2.05,-2.83 -2.05,-4.87l2,0c0,1.45 0.56,2.42 1.47,3.38l0,0.32l-1.15,1.18l-0.27,-0.01z" fill="#fbbc05"/>
  <path id="svg_4" d="m12,16.93a4.97,5.25 0 0 1 -3.54,-1.55l-1.41,1.49c1.26,1.34 3.02,2.13 4.95,2.13c3.87,0 6.99,-2.92 6.99,-7l-1.99,0c0,2.92 -2.24,4.93 -5,4.93z" fill="#ea4335"/>
 </g>
</svg>