<svg width="20" height="20" xmlns="http://www.w3.org/2000/svg" focusable="false">
 <g fill="#9aa0a6">
  <title>Layer 1</title>
  <path d="m6.02626,0.23245c-1.10139,0.14794 -2.24552,0.62795 -3.17595,1.33154c-0.35178,0.26302 -1.00933,0.92056 -1.27235,1.27235c-0.73646,0.97646 -1.20002,2.11731 -1.35126,3.32719c-0.04931,0.39782 -0.03945,1.30853 0.01644,1.70304c0.16768,1.1803 0.60494,2.23566 1.32495,3.19567c0.22685,0.30247 0.79892,0.89755 1.10796,1.15071c0.94687,0.77262 2.0943,1.27893 3.33705,1.46633c0.46029,0.07233 1.38742,0.07891 1.84114,0.01644c1.06523,-0.14794 2.21264,-0.60165 3.02143,-1.19673l0.17425,-0.12822l3.65596,3.6461c4.06694,4.06035 3.79075,3.81706 4.21159,3.78419c0.33863,-0.02959 0.61809,-0.2137 0.78906,-0.52603c0.08548,-0.14794 0.09863,-0.21041 0.09863,-0.42083c0,-0.17425 -0.01974,-0.28603 -0.06247,-0.37809c-0.04275,-0.08877 -1.22962,-1.30194 -3.71186,-3.78419l-3.6461,-3.65267l0.14794,-0.20384c0.44714,-0.60823 0.83509,-1.46304 1.04222,-2.30471c0.13479,-0.55563 0.17754,-0.93371 0.17754,-1.57811c0,-1.09153 -0.20713,-1.98908 -0.68714,-2.9754c-0.87454,-1.80169 -2.53813,-3.13979 -4.5042,-3.6198c-0.18083,-0.04275 -0.49645,-0.10192 -0.70029,-0.12822c-0.457,-0.05917 -1.38085,-0.05917 -1.83456,0.00329l0,0l0.00002,0l0,-0.00001zm1.99894,1.71948c1.07509,0.23342 2.04826,0.79892 2.76499,1.6077c1.40057,1.5814 1.68989,3.84665 0.7266,5.72723c-0.25316,0.49645 -0.52932,0.87454 -0.93371,1.28222c-2.16333,2.16991 -5.70093,1.95949 -7.63084,-0.45371c-0.53261,-0.66741 -0.90413,-1.53209 -1.03563,-2.41319c-0.07233,-0.49316 -0.04931,-1.35126 0.04931,-1.7951c0.22028,-0.99947 0.67728,-1.83456 1.40057,-2.55457c0.79563,-0.79892 1.70633,-1.26578 2.82746,-1.44989c0.4011,-0.06576 1.42358,-0.03945 1.83126,0.04931l0,0l-0.00002,-0.00002l0.00001,0.00002z" id="svg_1"/>
 </g>

</svg>