<svg width="32" height="32" xmlns="http://www.w3.org/2000/svg">
 <g>
  <title>Layer 1</title>
  <path stroke="null" id="svg_1" d="m16,0.1217c-8.77276,0 -15.8783,7.10554 -15.8783,15.8783s7.10554,15.8783 15.8783,15.8783s15.8783,-7.10554 15.8783,-15.8783s-7.10554,-15.8783 -15.8783,-15.8783zm0,4.76349c2.62786,0 4.76349,2.13563 4.76349,4.76349c0,2.6358 -2.13563,4.76349 -4.76349,4.76349s-4.76349,-2.12769 -4.76349,-4.76349c0,-2.62786 2.13563,-4.76349 4.76349,-4.76349zm0,22.54718c-3.97751,0 -7.47074,-2.03242 -9.52698,-5.11281c0.0397,-3.15184 6.35926,-4.89052 9.52698,-4.89052s9.47934,1.73867 9.52698,4.89052c-2.05624,3.08039 -5.54946,5.11281 -9.52698,5.11281z"/>
 </g>

</svg>